<svg width="19" height="19" viewBox="0 0 19 19" fill="none" xmlns="http://www.w3.org/2000/svg">
<path d="M2.6 0C1.91044 0 1.24912 0.273928 0.761522 0.761522C0.273928 1.24912 0 1.91044 0 2.6V5.2C0 5.88956 0.273928 6.55088 0.761522 7.03848C1.24912 7.52607 1.91044 7.8 2.6 7.8H5.2C5.88956 7.8 6.55088 7.52607 7.03848 7.03848C7.52607 6.55088 7.8 5.88956 7.8 5.2V2.6C7.8 1.91044 7.52607 1.24912 7.03848 0.761522C6.55088 0.273928 5.88956 0 5.2 0H2.6ZM2.6 10.4C1.91044 10.4 1.24912 10.6739 0.761522 11.1615C0.273928 11.6491 0 12.3104 0 13V15.6C0 16.2896 0.273928 16.9509 0.761522 17.4385C1.24912 17.9261 1.91044 18.2 2.6 18.2H5.2C5.88956 18.2 6.55088 17.9261 7.03848 17.4385C7.52607 16.9509 7.8 16.2896 7.8 15.6V13C7.8 12.3104 7.52607 11.6491 7.03848 11.1615C6.55088 10.6739 5.88956 10.4 5.2 10.4H2.6ZM10.4 2.6C10.4 1.91044 10.6739 1.24912 11.1615 0.761522C11.6491 0.273928 12.3104 0 13 0H15.6C16.2896 0 16.9509 0.273928 17.4385 0.761522C17.9261 1.24912 18.2 1.91044 18.2 2.6V5.2C18.2 5.88956 17.9261 6.55088 17.4385 7.03848C16.9509 7.52607 16.2896 7.8 15.6 7.8H13C12.3104 7.8 11.6491 7.52607 11.1615 7.03848C10.6739 6.55088 10.4 5.88956 10.4 5.2V2.6ZM10.4 13C10.4 12.3104 10.6739 11.6491 11.1615 11.1615C11.6491 10.6739 12.3104 10.4 13 10.4H15.6C16.2896 10.4 16.9509 10.6739 17.4385 11.1615C17.9261 11.6491 18.2 12.3104 18.2 13V15.6C18.2 16.2896 17.9261 16.9509 17.4385 17.4385C16.9509 17.9261 16.2896 18.2 15.6 18.2H13C12.3104 18.2 11.6491 17.9261 11.1615 17.4385C10.6739 16.9509 10.4 16.2896 10.4 15.6V13Z" fill="white"/>
</svg>
