<svg width="202" height="55" viewBox="0 0 202 55" fill="none" xmlns="http://www.w3.org/2000/svg">
<path d="M162.362 0H201.827C199.85 9.35817 197.886 18.6476 195.905 28.0314C196.934 28.1533 197.839 28.0956 198.746 28.0663C199.504 28.0424 200.274 28.0388 201.021 28.1496C202.036 28.299 202.289 29.0596 201.653 29.8835C201.224 30.4498 200.62 30.8594 199.935 31.0491C198.822 31.3524 197.687 31.5779 196.555 31.8042C196.11 31.8958 195.648 31.8958 195.073 31.9481C193.493 39.4533 191.911 46.9677 190.326 54.4913H150.954C150.954 54.2997 150.924 54.1247 150.954 53.9616C153.282 42.9246 155.614 31.8882 157.95 20.8524C158.046 20.4698 158.022 20.0667 157.88 19.6987C157.028 17.5113 156.916 15.2203 157.2 12.9348C157.413 11.2166 157.871 9.52953 158.208 7.82597C158.494 6.3854 159.255 5.69994 160.756 5.76592C160.879 5.75739 161.002 5.73932 161.123 5.71186C161.532 3.84151 161.943 1.94824 162.362 0ZM189.783 26.3086L189.971 26.1519C189.88 25.3052 189.829 24.4538 189.703 23.6135C189.472 22.0886 189.02 20.6453 188.027 19.4165C187.432 18.6833 186.885 17.9062 186.28 17.1796C185.944 16.7754 185.77 16.3548 185.877 15.8416C186.021 15.1516 185.749 14.6182 185.327 14.084C183.567 11.837 181.504 9.89151 179.371 8.01566C179.168 7.83292 178.92 7.70654 178.653 7.6491C177.423 7.43528 176.189 7.24528 174.951 7.07911C173.674 6.90866 172.464 7.07911 171.4 7.88736C171.07 8.13937 170.692 8.19802 170.274 8.13204C168.467 7.84796 166.658 7.5822 164.849 7.30729C163.552 7.11393 162.256 6.91141 160.955 6.75196C160.15 6.6539 159.436 6.89858 159.24 7.85162C159.021 8.92563 158.673 9.97398 158.466 11.0489C158.07 13.0952 157.862 15.1534 158.283 17.23C159.162 21.5535 161.765 24.4777 165.705 26.2582C169.247 27.8573 173.025 28.2981 176.869 28.3366C177.036 28.3444 177.203 28.3102 177.353 28.2371C177.504 28.1639 177.634 28.0541 177.731 27.9178C177.979 27.6093 178.206 27.2838 178.408 26.9437C178.951 25.976 178.922 25.8495 178.151 25.0761C178.08 24.9895 178.019 24.8959 177.968 24.7966C178.899 22.8932 180.625 21.9659 182.956 22.0694C183.442 22.0826 183.911 22.2552 184.291 22.5606C185.377 23.4006 186.486 24.2104 187.617 24.9899C188.317 25.4683 189.064 25.8715 189.786 26.3086H189.783ZM175.852 30.3068C172.547 30.1923 169.377 29.8431 166.39 28.5382C163.381 27.2232 161.025 25.1283 159.186 22.4048L159.003 22.4854C157.793 28.2834 156.585 34.0805 155.368 39.9133C156.247 40.1223 156.97 40.2506 157.778 39.9417C159.829 39.1582 161.924 38.4911 163.982 37.7268C164.565 37.5106 164.981 37.582 165.478 37.944C168.615 40.2222 171.775 42.4682 174.925 44.7253C175.085 44.8398 175.23 44.9745 175.451 45.156L171.372 47.7485C173.436 49.4896 175.36 51.1391 177.42 52.6887C177.328 51.2866 177.941 50.1375 178.408 48.9489C178.666 48.2965 178.958 47.655 179.187 46.9943C179.314 46.654 179.382 46.295 179.389 45.9322C179.384 45.0158 179.305 44.0994 179.297 43.183C179.297 42.7569 179.175 42.3397 178.944 41.9816C178.087 40.607 177.329 39.1683 176.385 37.8579C175.542 36.6895 175.306 35.5797 175.853 34.2216C176.364 32.9662 175.92 31.6631 175.852 30.3068ZM164.634 38.8842C164.634 40.4531 164.609 41.8533 164.644 43.2517C164.67 43.9809 164.533 44.7066 164.243 45.3759C163.562 46.9402 162.996 48.5586 162.242 50.0843C161.699 51.184 161.745 52.0949 162.624 53.0764C164.81 53.058 167.103 53.1203 169.486 53.0333C169.381 52.7437 169.349 52.5613 169.257 52.4156C168.839 51.754 168.834 51.0841 169.004 50.3235C169.493 48.1242 169.871 45.9029 170.363 43.7054C170.496 43.1097 170.328 42.8192 169.873 42.5076C168.39 41.4914 166.931 40.4403 165.46 39.4057C165.242 39.2508 165.01 39.1197 164.634 38.8842ZM179.916 25.0174C180.238 25.3116 180.501 25.6085 180.818 25.8321C181.961 26.6413 183.072 27.5118 184.285 28.2019C188.612 30.6642 193.225 31.6961 198.177 30.689C198.942 30.5332 199.683 30.2216 200.407 29.9137C200.76 29.7643 201.08 29.4738 200.844 28.8598C200.304 28.8598 199.735 28.8415 199.167 28.8598C197.459 28.9258 195.761 28.9515 194.072 28.5849C190.552 27.8124 187.449 26.1831 184.558 24.0882C183.073 23.0105 181.057 23.378 179.916 25.0165V25.0174ZM188.072 43.095C187.99 43.0624 187.905 43.037 187.819 43.019C186.421 42.9484 186.021 42.4197 186.439 41.0717C186.724 40.1709 187.056 39.286 187.435 38.4205C188.122 36.8251 188.864 35.2526 189.558 33.6553C189.833 33.0138 190.066 32.3559 189.913 31.7914L184.447 29.8175C184.474 30.0493 184.519 30.2821 184.524 30.5176C184.545 31.3369 184.633 32.1671 184.545 32.9744C184.403 34.2748 184.098 35.5568 183.942 36.8563C183.758 38.3674 183.625 39.8868 183.541 41.4061C183.492 42.3309 183.779 43.2421 184.349 43.972C185.031 44.8692 185.958 45.255 187.071 45.1633C188.068 45.0717 188.354 44.7051 188.228 43.7374C188.188 43.5201 188.135 43.3053 188.07 43.0941L188.072 43.095Z" fill="#E7BA3B"/>
<path d="M82.5116 23.8838C82.9992 24.0323 83.3501 24.1285 83.6929 24.2504C85.544 24.8845 86.6409 26.3352 86.7417 28.2907C86.8562 30.5084 86.124 32.4429 84.6835 34.0961C82.6757 36.4017 80.1336 37.6544 77.0573 37.6957C74.3081 37.7323 71.5589 37.7085 68.8098 37.7039C67.8549 37.7039 67.7266 37.5454 67.9145 36.6281C69.5536 28.6194 71.1957 20.6111 72.841 12.6031C73.0508 11.5822 73.2176 11.4503 74.2476 11.4512C76.0804 11.4512 77.9132 11.4512 79.746 11.4741C81.0656 11.4878 82.3723 11.65 83.6067 12.133C84.2623 12.3798 84.884 12.7086 85.4569 13.1117C87.0322 14.2572 87.462 15.8856 87.209 17.7367C86.8425 20.4492 85.4358 22.4314 82.9643 23.6401C82.8571 23.6886 82.7536 23.751 82.5116 23.8838ZM74.7223 25.8522C74.1258 28.7984 73.5411 31.6823 72.9555 34.5671C74.3127 34.8054 77.1819 34.6936 78.299 34.3838C79.9833 33.9256 81.1398 32.8883 81.697 31.2269C81.871 30.7074 81.9938 30.1721 82.0635 29.6287C82.2972 27.8115 81.3716 26.4259 79.5893 26.0236C78.0039 25.6699 76.3856 25.8385 74.7251 25.8522H74.7223ZM75.3537 22.8007C76.0868 22.8007 76.7228 22.8007 77.3579 22.8007C78.7285 22.7928 80.0412 22.2473 81.0136 21.2814C81.9861 20.3155 82.5404 19.0064 82.5575 17.6359C82.5868 16.1046 81.8922 15.1616 80.4259 14.7538C79.3263 14.4496 78.2074 14.5266 77.049 14.555C76.4845 17.3142 75.9301 20.0121 75.3565 22.8007H75.3537Z" fill="white"/>
<path d="M102.258 34.7617C101.865 35.1713 101.609 35.4664 101.325 35.7312C98.8687 38.0222 95.9931 38.6884 92.7619 37.9067C90.9722 37.4733 89.8725 36.2939 89.2924 34.5812C88.8012 33.1287 88.7985 31.6322 88.9589 30.1403C89.1852 28.0326 89.6507 25.9763 90.5928 24.072C91.0527 23.1088 91.6252 22.2035 92.2982 21.3751C94.5745 18.6561 97.5518 17.8598 100.954 18.4958C101.544 18.6019 102.107 18.824 102.61 19.1491C103.114 19.4743 103.548 19.896 103.887 20.3899C103.991 20.5375 104.109 20.6777 104.223 20.8188C104.238 20.8362 104.274 20.8353 104.397 20.871C104.581 20.4129 104.779 19.9482 104.954 19.4726C105.137 18.9815 105.447 18.7395 105.988 18.7615C106.751 18.7872 107.516 18.7542 108.279 18.7716C109.022 18.789 109.14 18.9366 108.996 19.6651C108.398 22.6873 107.795 25.7081 107.187 28.7273C106.929 30.0102 106.653 31.2931 106.409 32.5834C106.336 32.9736 106.308 33.3708 106.324 33.7674C106.351 34.374 106.498 34.5802 107.117 34.6975C107.617 34.7892 107.716 35.0522 107.639 35.4673C107.538 36.0061 107.413 36.5413 107.3 37.0783C107.201 37.5466 106.884 37.7473 106.437 37.7198C105.768 37.6992 105.1 37.6417 104.438 37.5475C103.246 37.3486 102.57 36.5926 102.356 35.4141C102.326 35.2639 102.309 35.1127 102.258 34.7617ZM93.2512 31.5699C93.2815 31.9905 93.2796 32.5147 93.3658 33.0233C93.5683 34.2146 94.2299 34.9211 95.3901 35.076C97.8249 35.4022 99.907 34.7415 101.255 32.5816C102.754 30.1834 103.286 27.5002 103.179 24.7006C103.136 23.5597 102.674 22.5636 101.633 21.9414C99.6091 20.7308 96.7665 21.3677 95.4808 23.3481C95.1125 23.9087 94.8053 24.5071 94.5644 25.1332C93.7956 27.1685 93.3942 29.2918 93.2512 31.5653V31.5699Z" fill="white"/>
<path d="M140.661 27.927C142.662 31.1728 144.693 34.2729 146.697 37.5665C146.314 37.6416 146.094 37.7195 145.873 37.7222C144.804 37.7351 143.735 37.703 142.665 37.7378C141.968 37.7598 141.539 37.4721 141.199 36.8727C139.984 34.7201 138.735 32.5877 137.496 30.4498C137.347 30.195 137.185 29.9485 136.932 29.5435C136.674 30.7778 136.446 31.8427 136.228 32.9103C135.97 34.1648 135.724 35.4212 135.468 36.6757C135.285 37.5921 135.125 37.7204 134.175 37.7259C133.177 37.7314 132.179 37.7149 131.067 37.7076C131.097 37.2301 131.077 36.8727 131.146 36.5337C132.638 29.2459 134.135 21.9585 135.636 14.6714C135.704 14.3451 135.707 14.0171 136.078 13.8311C137.544 13.0979 139.011 12.3401 140.66 11.4961C139.609 16.6664 138.594 21.6589 137.578 26.6523L137.752 26.7641C137.96 26.5689 138.175 26.3801 138.377 26.1776C140.537 24.0204 142.711 21.8705 144.845 19.6932C145.491 19.0325 146.187 18.709 147.117 18.7667C148.047 18.8245 148.977 18.7796 149.951 18.8849C149.465 19.6364 148.812 20.1679 148.218 20.747C147.605 21.3445 146.976 21.9237 146.356 22.512C145.713 23.1229 145.072 23.7339 144.431 24.3448C143.811 24.9331 143.19 25.5211 142.569 26.1088C141.953 26.6962 141.337 27.2818 140.661 27.927Z" fill="white"/>
<path d="M117.447 21.716C117.89 21.2055 118.206 20.8445 118.521 20.4825C120.262 18.4774 122.476 17.9377 124.991 18.4967C128.544 19.2866 129.531 22.1027 129.15 24.6264C128.818 26.8257 128.289 28.9939 127.874 31.1813C127.727 31.9291 127.632 32.686 127.589 33.4467C127.548 34.2586 127.686 34.4281 128.465 34.6902C128.846 34.8176 128.937 35.0567 128.878 35.3848C128.774 35.9539 128.652 36.5211 128.511 37.0838C128.412 37.4888 128.131 37.7253 127.711 37.6895C126.897 37.6144 126.053 37.6061 125.278 37.3771C123.772 36.9326 122.967 35.7275 123.073 33.9864C123.146 32.7768 123.439 31.5781 123.659 30.3804C123.95 28.8226 124.286 27.272 124.57 25.7123C124.73 24.8353 124.739 23.9519 124.478 23.0814C124.158 21.9872 123.422 21.4025 122.279 21.3686C120.798 21.3247 119.609 21.8992 118.725 23.0896C118.002 24.0637 117.582 25.1753 117.331 26.3465C116.604 29.7463 115.9 33.1507 115.181 36.5523C114.949 37.6446 114.875 37.6987 113.801 37.7033C113.037 37.7033 112.274 37.7152 111.51 37.7033C110.732 37.6886 110.593 37.5411 110.734 36.753C111.046 35.0742 111.399 33.4027 111.735 31.7284C112.277 29.0373 112.817 26.3462 113.356 23.655C113.426 23.3586 113.455 23.054 113.442 22.7496C113.403 22.2658 113.206 21.9029 112.649 21.7764C112.053 21.6399 112.036 21.5602 112.139 20.9517C112.216 20.5008 112.3 20.0509 112.407 19.6055C112.564 18.943 112.745 18.7615 113.408 18.7808C114.136 18.8037 114.875 18.8477 115.583 19.0089C116.639 19.249 117.269 19.9427 117.359 21.0635C117.375 21.2046 117.399 21.3503 117.447 21.716Z" fill="white"/>
<path d="M9.18995 14.7237C8.64011 17.3876 8.10494 20.003 7.54961 22.7054C7.87035 22.732 8.12785 22.7714 8.38627 22.7723C10.2786 22.7778 12.1719 22.7723 14.0679 22.7723C14.2814 22.7723 14.4958 22.7613 14.7094 22.7778C15.2812 22.82 15.4205 22.9702 15.3343 23.5155C15.2482 24.0607 15.1382 24.5968 15.0081 25.1293C14.8248 25.888 14.604 26.0612 13.7838 26.0695C12.4404 26.0832 11.097 26.0695 9.75169 26.0695H6.85774C6.59473 27.3405 6.34273 28.5566 6.09163 29.7726C5.61878 32.0718 5.15509 34.3729 4.67032 36.6694C4.47421 37.5995 4.37432 37.6664 3.45702 37.6774C2.63227 37.6841 1.80752 37.6841 0.982765 37.6774C0.00406153 37.6691 -0.116902 37.5161 0.0792054 36.5227C0.31655 35.3259 0.567641 34.1328 0.812317 32.9387C2.20095 26.1904 3.58959 19.4425 4.97822 12.6948C5.02401 12.4557 5.08244 12.2193 5.15325 11.9864C5.26689 11.6263 5.52531 11.4366 5.90377 11.4283C6.14753 11.421 6.39221 11.4219 6.63689 11.4219L18.1751 11.4375L18.9083 11.4421C19.3243 11.4421 19.558 11.651 19.4883 12.0689C19.3729 12.7598 19.2327 13.448 19.0695 14.1289C18.9779 14.4955 18.6737 14.6613 18.3181 14.7035C18.0742 14.723 17.8295 14.7282 17.585 14.7191H9.18995V14.7237Z" fill="white"/>
<path d="M44.2536 38.0599C42.9793 38.0566 41.7136 37.8513 40.5037 37.4514C39.9558 37.2695 39.4397 37.0029 38.9742 36.6615C38.4336 36.2592 38.4354 35.8468 38.8267 35.3162C38.8633 35.2676 38.9064 35.2246 38.9477 35.1787C40.2902 33.7125 39.9429 33.8482 41.6272 34.3971C43.2492 34.9267 44.8959 35.1494 46.5903 34.924C47.9173 34.7471 48.9785 34.1909 49.4082 32.808C49.6648 31.9833 49.5063 31.439 48.7466 31.033C48.0959 30.7018 47.4221 30.4179 46.7305 30.1835C45.9855 29.9141 45.2277 29.6712 44.4625 29.4706C41.5126 28.6971 40.7465 26.4941 41.3917 23.8806C42.0982 21.0196 43.9841 19.2189 46.8359 18.5289C49.1645 17.9438 51.6185 18.1096 53.8472 19.0026C54.3272 19.1966 54.7775 19.457 55.1852 19.7761C55.6479 20.1362 55.6434 20.3992 55.2768 20.862C54.9625 21.246 54.5959 21.5795 54.321 21.9782C54.0461 22.3768 53.7336 22.3713 53.3615 22.2531C52.7521 22.0588 52.1482 21.8444 51.5407 21.6428C50.4758 21.289 49.378 21.2579 48.2792 21.3678C46.9147 21.509 45.9681 22.3172 45.6364 23.5507C45.3825 24.4955 45.6685 25.1012 46.5968 25.4119C47.7816 25.8087 48.9904 26.1358 50.1771 26.5271C50.8444 26.7369 51.4946 26.9979 52.1217 27.3079C53.313 27.9182 53.9013 28.9381 53.937 30.2724C54.0067 32.8823 53.0151 34.9606 50.8314 36.4342C48.9638 37.6933 46.8634 38.091 44.2536 38.0599Z" fill="white"/>
<path d="M60.2911 21.5895C59.6844 21.5895 59.1447 21.6033 58.6067 21.5895C57.913 21.5666 57.782 21.4255 57.9066 20.7648C58.3245 18.4839 58.2347 18.7395 60.2214 18.7267C60.4313 18.7267 60.6402 18.7056 60.9353 18.6901C61.1057 17.8424 61.3119 17.0204 61.4246 16.1856C61.4998 15.6357 61.7591 15.3342 62.2494 15.0996C63.3766 14.559 64.4771 13.9624 65.5905 13.3924C65.8288 13.2705 66.0781 13.1697 66.4749 12.9883C66.0991 14.9439 65.75 16.7565 65.3752 18.6891C65.783 18.7038 66.1083 18.7194 66.4254 18.7267C66.9138 18.7386 67.4022 18.7267 67.8916 18.7597C68.2646 18.7808 68.4497 19.0154 68.3837 19.3792C68.2811 19.9483 68.1647 20.5173 68.0126 21.0754C67.8861 21.5391 67.4847 21.6326 67.0678 21.6372C66.3347 21.6463 65.6098 21.6372 64.8116 21.6372C64.5706 22.8285 64.3388 23.9511 64.1124 25.0782C63.6258 27.4993 63.1365 29.9204 62.6618 32.3433C62.5897 32.6705 62.5666 33.0065 62.593 33.3404C62.6746 34.0936 63.1658 34.5445 63.9145 34.6169C64.0657 34.6316 64.2205 34.6169 64.3727 34.6279C65.0609 34.6856 65.191 34.8295 65.0801 35.4838C64.9931 35.9942 64.8693 36.4992 64.7484 37.0032C64.6567 37.3972 64.4112 37.6721 63.9878 37.6703C63.0118 37.6703 62.0221 37.7326 61.0636 37.5933C59.0549 37.3019 58.0322 36.0657 58.0203 34.0011C58.0302 33.2997 58.11 32.601 58.2585 31.9154C58.9 28.6549 59.568 25.3989 60.2251 22.1412C60.2507 22.0001 60.2581 21.8562 60.2911 21.5895Z" fill="white"/>
<path d="M34.1698 20.8314C35.2695 19.7638 36.3792 18.8639 37.8601 18.6201C38.6647 18.4872 39.4711 18.336 40.393 18.5367C40.1511 19.6932 39.9348 20.7901 39.6883 21.8816C39.6095 22.2371 39.3217 22.3397 38.9827 22.3269C38.6436 22.3141 38.3128 22.2765 37.9746 22.2793C36.0502 22.293 34.6903 23.2387 34.146 25.0825C33.7574 26.3948 33.5109 27.7501 33.2177 29.0899C32.6587 31.6448 32.1125 34.2107 31.5535 36.7765C31.3574 37.6764 31.1677 37.8267 30.2522 37.8359C29.5503 37.8432 28.8474 37.8359 28.1445 37.8359C27.0669 37.8286 26.9532 37.7067 27.1713 36.673C27.7413 33.9577 28.3251 31.2452 28.9061 28.5327C29.224 27.0417 29.5549 25.5535 29.8618 24.0607C29.9439 23.6726 29.9869 23.2771 29.9901 22.8804C29.9901 22.1922 29.8353 21.964 29.1471 21.7917C28.7246 21.6836 28.5752 21.4701 28.6467 21.0806C28.7524 20.5112 28.8725 19.9449 29.0069 19.3816C29.104 18.9812 29.3826 18.72 29.7959 18.7484C30.7654 18.8153 31.7469 18.8547 32.6944 19.0462C33.5421 19.2167 34.0296 19.86 34.1698 20.8314Z" fill="white"/>
<path d="M23.1988 18.8423C23.6569 18.8423 24.1151 18.8203 24.5733 18.8478C25.2148 18.8863 25.3733 19.0934 25.2377 19.7321C24.7649 21.9672 24.2737 24.1977 23.7944 26.4318C23.3057 28.6923 22.8255 30.9564 22.3538 33.2241C22.2822 33.52 22.2629 33.8261 22.297 34.1286C22.3703 34.6115 22.4803 35.0917 23.1374 35.1476C23.5525 35.1825 23.6716 35.4858 23.5836 35.8807C23.4718 36.3866 23.4004 36.9016 23.2711 37.4019C23.119 37.9958 22.8643 38.2157 22.2127 38.1763C21.4888 38.1332 20.7465 38.0562 20.0546 37.861C18.6626 37.4688 17.9277 36.4562 17.8553 35.0413C17.8232 34.2501 17.8922 33.4581 18.0606 32.6844C18.9485 28.4562 19.8741 24.2325 20.7905 20.008C21.0141 18.977 21.1634 18.857 22.1926 18.8441C22.528 18.8441 22.8634 18.8441 23.2006 18.8441L23.1988 18.8423Z" fill="white"/>
<path d="M125.272 44.8328C124.448 44.3599 124.109 43.6983 124.334 42.8167C124.582 41.8472 125.105 41.1049 126.083 40.7429C126.948 40.4232 127.892 40.3841 128.781 40.6311C129.85 40.9125 130.345 41.9507 129.904 43.1246C129.732 43.5828 129.339 43.9714 129.001 44.3498C128.827 44.5441 128.552 44.6477 128.331 44.787C128.344 44.863 128.331 44.9372 128.363 44.9583C129.775 45.9948 129.913 47.6094 128.703 48.9675C127.65 50.1515 125.259 50.5492 123.872 49.773C123.359 49.4853 123.048 49.0546 122.985 48.4663C122.854 47.2924 123.18 46.2898 124.138 45.5521C124.45 45.3102 124.804 45.126 125.272 44.8328ZM125.99 48.8805C127.104 48.8621 128.041 47.768 127.889 46.6628C127.776 45.8445 127.258 45.4477 126.43 45.543C125.514 45.6493 124.738 46.4841 124.657 47.4564C124.58 48.3829 125.061 48.896 125.99 48.8805ZM125.931 43.1127C125.918 43.7542 126.316 44.2124 126.888 44.2023C127.579 44.1913 128.329 43.4261 128.364 42.6948C128.391 42.1313 128.008 41.7354 127.41 41.7079C127.219 41.6999 127.03 41.7302 126.852 41.797C126.673 41.8639 126.511 41.9659 126.373 42.0969C126.235 42.228 126.125 42.3855 126.049 42.56C125.973 42.7345 125.933 42.9225 125.931 43.1127Z" fill="white"/>
<path d="M135.481 46.1431C134.715 46.8927 133.831 47.0595 132.838 46.8506C132.078 46.6902 131.611 46.2448 131.407 45.487C130.722 42.9532 132.713 40.4468 135.321 40.5687C136.353 40.6182 137.023 41.1305 137.33 42.1266C137.648 43.152 137.505 44.1811 137.314 45.2029C137.099 46.3484 136.743 47.4499 136.078 48.4222C134.9 50.1468 132.974 50.6719 131.193 49.7665C131.052 49.68 130.916 49.5839 130.788 49.4788C130.941 49.1837 131.077 48.9225 131.23 48.6293C132.306 48.7108 133.421 49.2891 134.385 48.4204C135.036 47.832 135.366 47.0558 135.481 46.1431ZM135.914 43.3161C135.914 41.914 135.062 41.3916 134.123 41.9488C133.8 42.1394 133.47 42.4501 133.327 42.7836C133.086 43.3363 132.936 43.9242 132.882 44.5248C132.811 45.4412 133.604 45.9855 134.466 45.6318C134.806 45.4916 135.17 45.2057 135.335 44.8877C135.636 44.3076 135.795 43.6551 135.914 43.3161Z" fill="white"/>
<path d="M90.1764 41.1756L89.6971 42.0618C89.0648 41.9637 88.4682 41.8024 87.8707 41.7978C87.2979 41.791 86.7281 41.8811 86.1855 42.0645C85.6274 42.2615 85.3516 42.7802 85.3672 43.3786C85.3818 43.9156 85.8034 44.1475 86.2359 44.3335C86.684 44.5268 87.1459 44.69 87.5839 44.9035C89.2875 45.7282 89.6219 47.6206 88.328 49.0126C87.8424 49.5254 87.2158 49.8829 86.5273 50.0398C85.138 50.3899 83.8239 50.2085 82.4888 49.5322C82.6546 49.2151 82.7893 48.9558 82.947 48.6588C83.6233 48.7386 84.2831 48.8715 84.9438 48.8788C85.5184 48.8836 86.0909 48.808 86.6446 48.6543C86.8859 48.5959 87.101 48.4588 87.2558 48.2647C87.4106 48.0705 87.4964 47.8304 87.4996 47.5821C87.5307 47.0057 87.1862 46.6739 86.7298 46.4448C86.2735 46.2158 85.7777 46.0352 85.3094 45.8125C83.6104 45.0061 83.2375 43.353 84.4187 41.8895C84.8645 41.341 85.4667 40.9411 86.1452 40.7431C87.5289 40.3133 88.8265 40.5607 90.1764 41.1756Z" fill="white"/>
<path d="M137.693 47.7673C137.928 47.3091 138.021 46.992 138.218 46.7592C139.821 44.8834 141.457 43.035 143.053 41.1528C143.562 40.5516 144.146 40.6267 144.879 40.7633C144.495 42.6941 144.118 44.5911 143.733 46.5265L144.705 46.6722C144.646 47.0121 144.588 47.3457 144.529 47.6894L143.468 47.7966C143.312 48.4775 143.15 49.1785 142.979 49.929H141.365C141.502 49.1904 141.626 48.5159 141.764 47.7636L137.693 47.7673ZM142.054 46.5879C142.267 45.5267 142.469 44.526 142.695 43.4181C141.769 44.2126 140.375 45.9528 140.136 46.5879H142.054Z" fill="white"/>
<path d="M95.8986 49.9368H94.4507C94.4514 49.6947 94.4679 49.4528 94.5002 49.2128C94.7503 47.9876 95.0253 46.767 95.2672 45.5409C95.3588 45.0827 95.5916 44.6025 95.0133 44.2268C94.9034 44.1544 94.9648 43.6971 95.0647 43.4689C95.1233 43.337 95.4193 43.2352 95.6026 43.2444C96.1762 43.2746 96.7022 43.4405 96.8635 44.1498C97.1293 43.9079 97.3401 43.6916 97.5756 43.5083C98.2482 42.9805 99.3277 42.931 100.084 43.3764C100.743 43.7649 101.065 44.5338 100.916 45.4474C100.818 46.0495 100.641 46.6387 100.565 47.2426C100.489 47.8465 100.177 48.4642 100.788 49.0222C100.921 49.1432 100.764 49.5831 100.741 49.8543C99.2874 50.1091 98.6569 49.5482 98.8429 48.2048C98.9428 47.4809 99.1224 46.7679 99.2617 46.0486C99.3077 45.8406 99.3383 45.6296 99.3534 45.4172C99.3818 44.7757 99.2122 44.3991 98.8099 44.2717C98.305 44.1113 97.7964 44.192 97.4693 44.6034C97.1642 44.9792 96.9382 45.4128 96.8049 45.8781C96.519 46.9677 96.3247 48.0774 96.0901 49.1854C96.0397 49.4236 95.9719 49.6509 95.8986 49.9368Z" fill="white"/>
<path d="M110.169 47.1849C109.975 48.6264 110.454 49.1616 111.741 49.0122C112.22 48.9563 112.689 48.8125 113.159 48.7098C113.594 49.3375 113.588 49.4723 112.997 49.7178C112.018 50.1284 111.005 50.2585 109.957 49.9864C109.116 49.7673 108.647 49.2093 108.546 48.379C108.38 47.0044 108.638 45.6958 109.435 44.543C110.287 43.3068 111.492 42.8797 112.952 43.1537C113.862 43.3251 114.453 43.8869 114.526 44.8106C114.555 45.3564 114.478 45.9027 114.301 46.4198C114.108 47.0154 113.555 47.1785 112.968 47.1813C112.054 47.1868 111.143 47.1849 110.169 47.1849ZM110.377 46.0853C111.072 46.0853 111.682 46.1128 112.288 46.0697C112.402 46.057 112.512 46.0212 112.612 45.9645C112.712 45.9077 112.799 45.8313 112.868 45.7398C113.092 45.3833 112.914 44.6484 112.609 44.3799C112.303 44.1114 111.784 44.1224 111.333 44.4257C110.796 44.7868 110.546 45.3256 110.377 46.0835V46.0853Z" fill="white"/>
<path d="M24.6962 11.6186C25.2131 11.6186 25.729 11.6103 26.2458 11.6186C26.6701 11.6277 26.8626 11.8733 26.7828 12.2765C26.5879 13.2583 26.3781 14.2358 26.1533 15.209C26.0451 15.6819 25.7281 15.9293 25.2369 15.9293C24.2957 15.9293 23.3528 15.9522 22.4126 15.9201C21.8426 15.9009 21.7088 15.7295 21.8123 15.1668C21.9874 14.212 22.2027 13.2644 22.4144 12.3178C22.5216 11.8403 22.8332 11.6003 23.3308 11.6076C23.789 11.6149 24.2426 11.6076 24.698 11.6076L24.6962 11.6186Z" fill="white"/>
<path d="M120.373 49.9328H118.834C119.324 47.4796 119.802 45.0878 120.3 42.5925C119.622 42.861 119.064 43.0828 118.497 43.3064C118.377 42.39 118.466 42.1911 119.188 41.8685C120.184 41.4241 121.187 40.9943 122.204 40.5508C122.297 41.2417 120.801 48.8606 120.373 49.9328Z" fill="white"/>
<path d="M106.671 48.6787C107.007 49.4118 107 49.4814 106.488 49.7334C105.824 50.0507 105.086 50.1818 104.353 50.1128C103.007 50.0056 102.227 49.2065 102.224 47.8512C102.21 46.8096 102.459 45.7814 102.947 44.861C103.771 43.3205 105.722 42.6094 107.357 43.2426C107.632 43.3471 107.872 43.5249 108.127 43.6678C107.669 44.5283 107.669 44.5283 106.872 44.3093C105.619 43.9657 104.673 44.3863 104.232 45.5923C104.003 46.2205 103.866 46.8791 103.828 47.5469C103.765 48.7016 104.436 49.2276 105.569 48.9985C105.922 48.9288 106.265 48.7987 106.671 48.6787Z" fill="white"/>
<path d="M91.5977 43.2832H93.0209C92.9109 43.8935 92.8257 44.4278 92.7185 44.9565C92.5242 45.9123 92.3006 46.8626 92.1237 47.8221C92.0568 48.1886 91.9404 48.5552 92.2997 48.9218C92.471 49.0959 92.3913 49.5211 92.4179 49.8079C91.0671 50.1671 90.2534 49.6008 90.4467 48.4516C90.7216 46.8021 91.1074 45.1664 91.4548 43.526C91.49 43.4384 91.5382 43.3565 91.5977 43.2832Z" fill="white"/>
<path d="M93.6457 40.4688L93.3653 41.8763H91.8752C91.8613 41.7184 91.8613 41.5595 91.8752 41.4016C91.932 41.1056 92.0163 40.8142 92.1016 40.4688H93.6457Z" fill="white"/>
<path d="M189.787 26.3098C189.065 25.8727 188.321 25.4695 187.624 24.9911C186.495 24.2116 185.387 23.4018 184.298 22.5618C183.919 22.2563 183.45 22.0838 182.963 22.0706C180.633 21.967 178.906 22.8953 177.975 24.7978C178.026 24.897 178.087 24.9907 178.158 25.0773C178.929 25.8507 178.958 25.9772 178.416 26.9449C178.213 27.285 177.987 27.6105 177.738 27.919C177.641 28.0553 177.511 28.1651 177.361 28.2382C177.21 28.3114 177.043 28.3456 176.876 28.3378C173.027 28.2993 169.254 27.8585 165.713 26.2594C161.772 24.4789 159.167 21.5547 158.29 17.2311C157.867 15.1546 158.075 13.0964 158.473 11.0501C158.68 9.97516 159.028 8.92681 159.247 7.8528C159.443 6.89793 160.157 6.65325 160.962 6.75314C162.263 6.91259 163.559 7.11511 164.856 7.30847C166.665 7.57697 168.474 7.84731 170.281 8.13322C170.699 8.1992 171.077 8.14055 171.407 7.88855C172.471 7.07846 173.682 6.90984 174.958 7.08029C176.195 7.24524 177.429 7.43524 178.66 7.65029C178.927 7.70772 179.175 7.8341 179.378 8.01684C181.513 9.89269 183.576 11.8382 185.334 14.0852C185.752 14.6194 186.024 15.1528 185.884 15.8428C185.777 16.3587 185.951 16.7766 186.287 17.1807C186.892 17.9074 187.439 18.6818 188.034 19.4176C189.027 20.6465 189.479 22.0898 189.71 23.6147C189.837 24.455 189.893 25.3064 189.979 26.1531L189.787 26.3098ZM177.177 14.2739C175.998 15.0593 174.397 16.5548 174.118 17.1331C175.786 16.8298 177.464 16.739 179.152 16.3624L177.177 14.2739Z" fill="#2F4265"/>
<path d="M175.852 30.308C175.92 31.6642 176.364 32.9655 175.852 34.2329C175.302 35.5909 175.541 36.7007 176.385 37.8691C177.328 39.1768 178.086 40.6183 178.943 41.9928C179.174 42.3509 179.297 42.7681 179.297 43.1942C179.308 44.1106 179.388 45.027 179.388 45.9434C179.381 46.3062 179.313 46.6653 179.187 47.0055C178.954 47.6662 178.665 48.3077 178.408 48.9601C177.941 50.1514 177.325 51.2979 177.419 52.6999C175.355 51.1531 173.431 49.5008 171.371 47.7597L175.451 45.1672C175.23 44.9839 175.084 44.8511 174.925 44.7365C171.774 42.4767 168.615 40.2306 165.478 37.9552C164.98 37.5887 164.561 37.5218 163.981 37.738C161.923 38.5023 159.828 39.1694 157.777 39.953C156.969 40.2618 156.246 40.1362 155.367 39.9245C156.584 34.0917 157.793 28.2946 159.002 22.4967L159.186 22.416C161.025 25.1395 163.38 27.2344 166.39 28.5494C169.378 29.8443 172.548 30.1934 175.852 30.308Z" fill="#304265"/>
<path d="M164.634 38.8848C165.01 39.1212 165.242 39.2513 165.459 39.4062C166.925 40.4408 168.391 41.4919 169.872 42.5082C170.33 42.8197 170.495 43.1102 170.362 43.7059C169.87 45.9052 169.492 48.1256 169.002 50.324C168.833 51.0847 168.837 51.7545 169.256 52.4162C169.348 52.5619 169.38 52.7442 169.484 53.0338C167.102 53.1209 164.811 53.0586 162.622 53.0769C161.744 52.0954 161.698 51.1818 162.24 50.0849C162.995 48.5591 163.561 46.9407 164.242 45.3765C164.532 44.7071 164.669 43.9814 164.643 43.2523C164.608 41.853 164.634 40.4527 164.634 38.8848Z" fill="#304364"/>
<path d="M179.918 25.0174C181.058 23.3789 183.077 23.0114 184.56 24.0872C187.451 26.1821 190.554 27.8114 194.074 28.584C195.763 28.9505 197.465 28.9294 199.169 28.8589C199.737 28.8369 200.306 28.8589 200.846 28.8589C201.082 29.4729 200.762 29.7634 200.409 29.9127C199.685 30.2206 198.943 30.5322 198.179 30.688C193.23 31.696 188.614 30.6632 184.287 28.2009C183.074 27.5109 181.963 26.643 180.82 25.8311C180.504 25.6084 180.24 25.3115 179.918 25.0174Z" fill="#324464"/>
<path d="M188.071 43.0949C188.137 43.3054 188.191 43.5196 188.233 43.7364C188.358 44.7041 188.072 45.0734 187.075 45.1623C185.962 45.2612 185.035 44.8718 184.354 43.971C183.784 43.2411 183.497 42.3298 183.545 41.4051C183.63 39.8857 183.763 38.3663 183.946 36.8552C184.103 35.5558 184.404 34.2737 184.549 32.9734C184.64 32.1642 184.549 31.3358 184.529 30.5165C184.523 30.281 184.478 30.0483 184.452 29.8164L189.912 31.794C190.065 32.3585 189.835 33.021 189.558 33.6579C188.864 35.2506 188.122 36.8231 187.435 38.4231C187.056 39.2886 186.723 40.1735 186.438 41.0743C186.021 42.4223 186.421 42.951 187.819 43.0216C187.905 43.0387 187.989 43.0632 188.071 43.0949Z" fill="#324464"/>
<path d="M177.177 14.2734L179.152 16.3619C177.464 16.7385 175.786 16.8292 174.118 17.1326C174.397 16.5543 175.998 15.0588 177.177 14.2734Z" fill="#DEB53D"/>
</svg>
