<svg width="15" height="13" viewBox="0 0 15 13" fill="none" xmlns="http://www.w3.org/2000/svg">
<path d="M7.50115 2.88506C7.50115 3.65022 7.19719 4.38405 6.65614 4.9251C6.11509 5.46616 5.38126 5.77012 4.61609 5.77012C3.85093 5.77012 3.1171 5.46616 2.57605 4.9251C2.035 4.38405 1.73104 3.65022 1.73104 2.88506C1.73104 2.11989 2.035 1.38607 2.57605 0.845014C3.1171 0.303961 3.85093 0 4.61609 0C5.38126 0 6.11509 0.303961 6.65614 0.845014C7.19719 1.38607 7.50115 2.11989 7.50115 2.88506ZM11.5402 5.77012C12.1524 5.77012 12.7394 5.52695 13.1723 5.09411C13.6051 4.66126 13.8483 4.0742 13.8483 3.46207C13.8483 2.84994 13.6051 2.26288 13.1723 1.83004C12.7394 1.39719 12.1524 1.15402 11.5402 1.15402C10.9281 1.15402 10.341 1.39719 9.9082 1.83004C9.47536 2.26288 9.23219 2.84994 9.23219 3.46207C9.23219 4.0742 9.47536 4.66126 9.9082 5.09411C10.341 5.52695 10.9281 5.77012 11.5402 5.77012ZM10.3862 8.76366V8.65518C10.387 8.0308 10.1845 7.42314 9.8092 6.92414H13.5863C14.3664 6.92414 15 7.55655 15 8.33782C15 8.33782 15 10.9632 11.5379 10.9632C10.8478 10.9632 10.295 10.8594 9.85305 10.692C10.1287 10.1869 10.3039 9.63316 10.3689 9.06139C10.3758 8.98985 10.3804 8.92868 10.3828 8.8779L10.3862 8.7625V8.76366ZM9.23219 8.65518C9.23219 8.19608 9.04981 7.75578 8.72518 7.43115C8.40055 7.10652 7.96025 6.92414 7.50115 6.92414H1.73104C1.27194 6.92414 0.831641 7.10652 0.507009 7.43115C0.182376 7.75578 0 8.19608 0 8.65518V8.74173C0 8.74173 0 12.1172 4.61609 12.1172C9.01523 12.1172 9.2218 9.05216 9.23219 8.76366V8.65518Z" fill="white"/>
</svg>
